<svg width="160" height="160" viewBox="0 0 160 160" fill="none" xmlns="http://www.w3.org/2000/svg">
<path d="M160 80C160 124.183 124.183 160 80 160C35.8172 160 0 124.183 0 80C0 35.8172 35.8172 0 80 0C124.183 0 160 35.8172 160 80Z" fill="#1E3A8A"/>
<path d="M153.143 80C153.143 39.6043 120.396 6.85714 80 6.85714C39.6043 6.85714 6.85714 39.6043 6.85714 80C6.85714 120.396 39.6043 153.143 80 153.143V156.19C37.9212 156.19 3.80952 122.079 3.80952 80C3.80952 37.9212 37.9212 3.80952 80 3.80952C122.079 3.80952 156.19 37.9212 156.19 80C156.19 122.079 122.079 156.19 80 156.19V153.143C120.396 153.143 153.143 120.396 153.143 80Z" fill="white"/>
<path d="M50.2857 80C50.2857 83.3663 47.5568 86.0952 44.1905 86.0952C40.8242 86.0952 38.0952 83.3663 38.0952 80C38.0952 76.6337 40.8242 73.9048 44.1905 73.9048C47.5568 73.9048 50.2857 76.6337 50.2857 80Z" fill="#FBBF24"/>
<path d="M121.905 80C121.905 83.3663 119.176 86.0952 115.81 86.0952C112.443 86.0952 109.714 83.3663 109.714 80C109.714 76.6337 112.443 73.9048 115.81 73.9048C119.176 73.9048 121.905 76.6337 121.905 80Z" fill="#FBBF24"/>
<path d="M49.5238 78.4762H110.476V81.5238H49.5238V78.4762Z" fill="#FBBF24"/>
<path d="M87.619 80C87.619 84.2079 84.2079 87.619 80 87.619C75.7921 87.619 72.381 84.2079 72.381 80C72.381 75.7921 75.7921 72.381 80 72.381C84.2079 72.381 87.619 75.7921 87.619 80Z" fill="white"/>
<path d="M80.5878 5.61086C89.0663 15.9061 100.617 43.1715 84.3304 74.4137C99.1888 57.2 105.564 43.2842 107.411 32.7731C109.45 21.1754 105.982 13.7487 102.347 10.471L103.368 9.33854C107.478 13.045 111.02 21.047 108.912 33.0365C106.805 45.0252 99.0549 61.0276 80.558 80.9003L79.3571 79.9717C100.476 46.785 88.1393 17.1769 79.4122 6.57961L80.5878 5.61086Z" fill="white"/>
<path d="M118.132 99.8095H117.288L119.73 93.1602H120.561L123.002 99.8095H122.158L120.171 94.2122H120.119L118.132 99.8095ZM118.444 97.2122H121.847V97.9264H118.444V97.2122Z" fill="white"/>
<path d="M109.115 93.8745V93.1602H114.102V93.8745H112.011V99.8095H111.206V93.8745H109.115Z" fill="white"/>
<path d="M101.058 99.8095H100.214L102.656 93.1602H103.487L105.929 99.8095H105.084L103.097 94.2122H103.045L101.058 99.8095ZM101.37 97.2122H104.773V97.9264H101.37V97.2122Z" fill="white"/>
<path d="M93.2873 99.8095H91.2353V93.1602H93.3782C94.0232 93.1602 94.5751 93.2933 95.034 93.5595C95.4929 93.8236 95.8446 94.2035 96.0892 94.6992C96.3338 95.1927 96.4561 95.7836 96.4561 96.4719C96.4561 97.1645 96.3327 97.7608 96.086 98.2608C95.8392 98.7587 95.4799 99.1418 95.008 99.4102C94.5362 99.6764 93.9626 99.8095 93.2873 99.8095ZM92.0405 99.0953H93.2353C93.7851 99.0953 94.2407 98.9892 94.6022 98.7771C94.9637 98.565 95.2332 98.263 95.4106 97.8712C95.5881 97.4795 95.6769 97.013 95.6769 96.4719C95.6769 95.9351 95.5892 95.473 95.4139 95.0855C95.2386 94.6959 94.9767 94.3972 94.6282 94.1894C94.2797 93.9795 93.8457 93.8745 93.3262 93.8745H92.0405V99.0953Z" fill="white"/>
<path d="M82.038 99.8095H81.1939L83.6355 93.1602H84.4666L86.9082 99.8095H86.064L84.077 94.2122H84.0251L82.038 99.8095ZM82.3497 97.2122H85.7523V97.9264H82.3497V97.2122Z" fill="#FBBF24"/>
<path d="M77.1728 95.2381H76.3676C76.3199 95.0065 76.2366 94.8031 76.1176 94.6277C76.0007 94.4524 75.8578 94.3052 75.689 94.1862C75.5223 94.065 75.3373 93.9741 75.1338 93.9134C74.9303 93.8528 74.7182 93.8225 74.4974 93.8225C74.0948 93.8225 73.7301 93.9243 73.4033 94.1277C73.0786 94.3312 72.8199 94.631 72.6273 95.0271C72.4368 95.4232 72.3416 95.9091 72.3416 96.4849C72.3416 97.0606 72.4368 97.5466 72.6273 97.9427C72.8199 98.3388 73.0786 98.6386 73.4033 98.842C73.7301 99.0455 74.0948 99.1472 74.4974 99.1472C74.7182 99.1472 74.9303 99.1169 75.1338 99.0563C75.3373 98.9957 75.5223 98.9059 75.689 98.7868C75.8578 98.6656 76.0007 98.5173 76.1176 98.342C76.2366 98.1645 76.3199 97.9611 76.3676 97.7316H77.1728C77.1121 98.0715 77.0018 98.3756 76.8416 98.644C76.6814 98.9124 76.4823 99.1407 76.2442 99.329C76.0061 99.5152 75.7388 99.657 75.4422 99.7544C75.1479 99.8518 74.8329 99.9005 74.4974 99.9005C73.9303 99.9005 73.426 99.7619 72.9844 99.4849C72.5429 99.2078 72.1955 98.8139 71.9422 98.3031C71.689 97.7922 71.5624 97.1862 71.5624 96.4849C71.5624 95.7836 71.689 95.1775 71.9422 94.6667C72.1955 94.1559 72.5429 93.7619 72.9844 93.4849C73.426 93.2078 73.9303 93.0693 74.4974 93.0693C74.8329 93.0693 75.1479 93.118 75.4422 93.2154C75.7388 93.3128 76.0061 93.4557 76.2442 93.644C76.4823 93.8301 76.6814 94.0574 76.8416 94.3258C77.0018 94.592 77.1121 94.8961 77.1728 95.2381Z" fill="#FBBF24"/>
<path d="M66.9162 93.1602V99.8095H66.111V93.1602H66.9162Z" fill="#FBBF24"/>
<path d="M56.0517 99.8095V93.1602H56.8569V96.1212H60.4024V93.1602H61.2076V99.8095H60.4024V96.8355H56.8569V99.8095H56.0517Z" fill="#FBBF24"/>
<path d="M46.5306 93.8745V93.1602H51.5176V93.8745H49.4267V99.8095H48.6215V93.8745H46.5306Z" fill="#FBBF24"/>
<path d="M38.1385 99.8095V93.1602H42.1515V93.8745H38.9437V96.1212H41.9437V96.8355H38.9437V99.0953H42.2035V99.8095H38.1385Z" fill="#FBBF24"/>
</svg>
